<svg width="719" height="240" viewBox="0 0 719 240" fill="none" xmlns="http://www.w3.org/2000/svg">
<g clip-path="url(#clip0_4226_353)">
<path fill-rule="evenodd" clip-rule="evenodd" d="M288.752 192.644C289.492 193.349 289.474 194.221 288.697 195.403C288.072 196.354 286.662 197.212 285.564 197.311C283.116 197.53 245.512 185.928 219.557 176.944C219.557 176.589 218.519 172.431 218 170.397C230.884 174.7 244.386 178.915 258.787 183.14C274.674 187.801 288.158 192.078 288.752 192.644ZM61.4655 100.29C43.0654 89.388 28.1153 78.9625 17.9821 69.7801C10.867 63.3326 5.2459 55.9292 5.2459 53.0059C5.2459 50.0375 9.42912 48.1286 15.9341 48.1286C19.2401 48.1286 23.2779 47.6408 24.9072 47.0448L27.8693 45.961L24.7125 44.3487C20.9198 42.4115 8.96473 42.1659 5.51984 43.9544C4.22365 44.6274 2.44803 46.4966 1.5739 48.1085C-1.83675 54.3976 0.13787 59.962 9.0483 69.1705C20.0773 80.5684 38.2367 93.53 61.4655 107V100.29Z" fill="#FA5F1C"/>
<path d="M620.093 177H666V208H599L620.093 177Z" fill="#FA5F1C"/>
<path d="M104.435 185.393L104.702 131.787L94.7017 126.964C85.811 122.675 71.721 114.712 63.9518 109.585L61.2018 107.77V173.385V239H82.6846H104.168L104.435 185.393ZM218.202 207.583V176.166L203.952 171.442C173.729 161.423 139.952 148.265 115.794 137.1C110.894 134.836 106.774 133.099 106.638 133.241C106.503 133.384 114.111 143.903 123.546 156.617C132.982 169.332 150.377 193.061 162.202 209.35L183.702 238.965L200.952 238.984L218.202 239.003V207.583ZM291.79 218C296.379 206.725 300.15 197.048 300.168 196.495C300.195 195.729 268.485 188.492 261.421 187.652C260.651 187.561 255.768 197.586 249.171 212.804C243.138 226.722 238.202 238.317 238.202 238.573C238.202 238.828 248.382 238.917 260.823 238.769L283.445 238.5L291.79 218ZM430.013 231.75C428.308 227.763 424.8 219.55 422.216 213.5C419.632 207.45 417 202.611 416.368 202.747C415.736 202.883 405.972 203.293 394.67 203.657C383.369 204.021 373.942 204.611 373.723 204.966C373.369 205.538 385.108 235.422 386.695 237.99C387.086 238.622 395.876 239 410.216 239H433.113L430.013 231.75ZM496.202 213C496.202 198.7 496.047 187 495.858 187C495.669 187 492.857 187.945 489.608 189.099C486.36 190.254 476.952 192.878 468.702 194.93L453.702 198.662L453.431 218.831L453.16 239H474.681H496.202L496.202 213ZM577.025 216.25C582.124 203.737 593.797 174.945 602.966 152.267C612.241 129.324 620.016 111.415 620.494 111.892C620.966 112.364 626.251 125.294 632.238 140.625C638.226 155.956 644.042 170.3 645.163 172.5C647.574 177.233 661.187 209.612 661.235 210.729C661.254 211.153 663.696 217.575 666.663 225L672.057 238.5L695.075 238.768L718.093 239.037L713.771 228.768C711.393 223.121 705.396 209.275 700.443 198C690.997 176.499 650.678 82.974 644.182 67.5L640.405 58.5001H620.178H599.951L577.242 111.5C564.753 140.65 547.294 181.263 538.445 201.75L522.356 239H545.055H567.755L577.025 216.25ZM408.892 191.412L411.832 190.824L383.33 124.392L354.827 57.9598L334.836 58.23L314.845 58.5002L289.938 117C264.88 175.858 262.519 181.652 263.284 182.415C263.663 182.792 292.245 188.993 299.866 190.352L303.031 190.916L312.74 166.208C327.191 129.434 334.376 112 335.076 112.006C335.42 112.01 340.427 124.211 346.202 139.121C356.036 164.51 356.929 166.375 360.285 168.522C366.391 172.429 372.122 179.814 373.995 186.189L375.702 191.997L390.827 191.999C399.145 192 407.275 191.735 408.892 191.412ZM473.202 186.794C480.627 184.565 489.042 181.71 491.901 180.448L497.101 178.154L496.768 155.827C496.585 143.547 496.382 116.513 496.318 95.75L496.202 58H474.721H453.241L453.215 125.081L453.188 192.161L456.444 191.503C458.234 191.141 465.777 189.022 473.202 186.794ZM217.709 60.2499C217.165 58.0054 217.113 58 196.173 58H175.182L175.442 105.209L175.701 152.418L192.201 158.245C201.276 161.45 210.726 164.877 213.201 165.861L217.701 167.649L217.978 115.075C218.13 86.1586 218.009 61.4875 217.709 60.2499ZM157.742 136.75C153.136 130.562 138.388 110.425 124.967 92L100.567 58.5L80.8636 58.2286L61.1602 57.9573L61.4307 78.1603L61.7013 98.3632L71.2014 104.265C85.083 112.889 119.709 129.805 143.221 139.449C154.485 144.07 164.245 147.884 164.909 147.925C165.573 147.966 162.348 142.937 157.742 136.75ZM667.537 18.9993C675.053 9.09895 681.202 0.773936 681.202 0.499316C681.202 0.224544 673.427 0 663.925 0H646.647L642.467 8.25001C640.167 12.7875 635.83 21.1125 632.828 26.75L627.371 37H640.622H653.873L667.537 18.9993Z" fill="white"/>
<circle cx="341" cy="196" r="29" fill="#FA5F1C"/>
<path d="M204.863 53.3279C203.767 48.3266 201.367 43.7046 197.906 39.9317C194.445 36.1588 190.046 33.3694 185.158 31.8471C180.27 30.3248 175.065 30.1238 170.074 31.2646C165.083 32.4054 160.483 34.8472 156.741 38.342C152.999 41.8368 150.249 46.2599 148.771 51.1617C147.292 56.0636 147.138 61.2695 148.324 66.2503C149.509 71.2311 151.992 75.8093 155.52 79.5196C159.048 83.2298 163.496 85.9399 168.411 87.3743" stroke="#FA5F1C" stroke-width="7" stroke-linecap="round"/>
<circle cx="122.5" cy="25.5" r="9.5" stroke="#FA5F1C" stroke-width="4"/>
<circle cx="455.5" cy="120.5" r="9.5" stroke="#FA5F1C" stroke-width="4"/>
<circle cx="416.5" cy="101.5" r="4.5" fill="#FA5F1C"/>
<circle cx="546.5" cy="20.5" r="4.5" fill="#FA5F1C"/>
<circle cx="44.5" cy="171.5" r="4.5" fill="#FA5F1C"/>
<path d="M376.155 194.504C375.361 194.458 374.582 194.73 373.992 195.263C373.401 195.796 373.045 196.546 373.004 197.345C372.963 198.144 373.239 198.927 373.771 199.518C374.304 200.109 375.05 200.46 375.845 200.496C375.845 200.496 375.845 200.496 375.845 200.496C378.76 200.63 381.682 200.731 384.604 200.799C408.448 201.333 432.351 199.925 455.905 196.009C466.202 194.263 476.486 192.162 486.493 188.661C495.732 185.029 508.903 180.434 509.685 167C509.883 158.999 503.787 152.364 497.493 149.185C496.544 148.674 495.577 148.209 494.598 147.784C491.79 146.573 488.912 145.658 485.903 145.041C485.386 144.938 484.848 145.045 484.407 145.337C483.966 145.629 483.659 146.082 483.552 146.599C483.446 147.116 483.549 147.653 483.839 148.096C484.128 148.539 484.581 148.85 485.097 148.959C485.097 148.959 485.097 148.959 485.097 148.959C487.765 149.536 490.438 150.418 492.945 151.536C493.822 151.929 494.681 152.355 495.514 152.815C501.141 155.821 505.513 160.943 505.315 167C505.149 176.002 494.039 181.014 484.94 184.197C475.361 187.428 465.244 189.392 455.095 190.991C431.874 194.578 408.268 195.699 384.777 194.902C381.899 194.801 379.021 194.669 376.155 194.504Z" fill="#FA5F1C"/>
</g>
<defs>
<clipPath id="clip0_4226_353">
<rect width="718.093" height="239.037" fill="white"/>
</clipPath>
</defs>
</svg>
